<?xml version="1.0" encoding="UTF-8"?>
<!DOCTYPE svg PUBLIC "-//W3C//DTD SVG 1.1//EN" "http://www.w3.org/Graphics/SVG/1.1/DTD/svg11.dtd">
<!-- Creator: CorelDRAW X8 -->
<svg xmlns="http://www.w3.org/2000/svg" xml:space="preserve" width="90px" height="64px" version="1.1" style="shape-rendering:geometricPrecision; text-rendering:geometricPrecision; image-rendering:optimizeQuality; fill-rule:evenodd; clip-rule:evenodd"
viewBox="0 0 10749 6906"
 xmlns:xlink="http://www.w3.org/1999/xlink">
 <defs>
  <style type="text/css">
   <![CDATA[
    .fil0 {fill:white;fill-rule:nonzero}
   ]]>
  </style>
 </defs>
 <g id="Слой_x0020_1">
  <metadata id="CorelCorpID_0Corel-Layer"/>
  <path class="fil0" d="M3458 2814l-787 0 0 -59c148,0 221,-38 219,-115 0,-24 -9,-61 -28,-111l-157 -382 -811 0 -129 324c-23,56 -36,103 -40,142 0,95 72,142 215,142l0 59 -613 0 0 -59c115,0 215,-101 299,-302l725 -1724 64 0 799 1835c56,127 137,191 244,191l0 59zm-1293 2235c40,48 87,110 141,187 -23,-119 -78,-169 -141,-187zm911 -241c-20,0 -34,-5 -43,-14 -14,-13 -18,-31 -16,-51 -63,34 -140,69 -177,47 -22,-14 -31,-38 -18,-78 -6,3 -12,7 -18,9 -8,3 -15,6 -23,9 -35,14 -55,5 -66,-22l1 0c-9,-22 2,-48 18,-85 20,-46 49,-116 47,-185 -16,12 -35,27 -53,42 -12,10 -24,20 -36,29 2,101 -41,209 -184,338 -66,59 -178,78 -284,96 -42,7 -83,14 -118,23 126,0 250,53 279,301 6,51 18,84 35,102 10,12 23,17 37,17 18,-1 39,-9 61,-24 58,-37 118,-111 158,-197 97,-204 184,-246 286,-294 35,-17 73,-35 114,-63zm-464 -257c-7,1 -13,1 -20,0 -47,-6 -71,-54 -54,-184 5,-37 -30,-180 -58,-292l-10 -41 21 -5c4,-75 30,-155 97,-246l46 -63 19 76c12,50 16,128 19,198 1,22 1,42 0,60 27,-42 60,-75 85,-93l1 0c11,-8 22,-14 32,-17 21,-6 39,-1 52,15 8,10 11,24 9,40l0 0c-10,75 -12,101 -9,102 10,1 44,-27 80,-56 40,-32 81,-65 118,-76l36 -10 10 35c28,100 -11,202 -39,269 35,-14 76,-26 96,-14 23,14 29,34 12,63 -20,31 -41,34 -36,38 10,6 102,-48 151,-76 40,-23 66,-39 86,-8l11 18 -9 18c-15,30 -27,59 -40,88 -22,49 -43,98 -69,140 33,-1 71,-2 100,-2l0 0 5 0c25,0 96,-1 110,24 12,21 9,39 -16,53l-19 11c-71,40 -117,66 -170,126 -105,119 -190,159 -266,195 -13,6 -26,13 -39,19l22 5c46,9 91,16 135,23 24,4 48,7 71,11 28,-7 66,-7 108,-7 89,0 204,1 267,-82 113,-152 173,-301 183,-433 5,-74 -5,-142 -31,-202 -25,-59 -66,-111 -121,-153 -79,-59 -188,-97 -326,-107l6 -73c152,11 274,54 364,121 66,50 114,112 145,183 30,71 43,151 36,237 -11,145 -76,307 -197,471 -52,69 -123,95 -194,105 241,96 417,328 472,1063l4 55 -53 -18c-193,-66 -336,-35 -465,-8 -189,40 -351,74 -588,-163 -39,-40 -91,-100 -147,-168 44,152 45,299 7,437 -51,187 -174,356 -364,495 -74,54 -157,103 -249,147l-25 11 -18 -20c-174,-188 -347,-383 -476,-564 -133,-186 -221,-359 -221,-500 0,-41 5,-80 13,-116 6,-29 14,-56 25,-82 -148,-31 -263,-140 -391,-261 -198,-187 -427,-402 -845,-363l-101 10 72 -72c373,-371 786,-546 1136,-567 33,-2 66,-3 98,-2 -153,-194 -111,-368 -94,-438l0 -1c14,-55 31,-105 48,-153 42,-120 80,-230 32,-374l-30 -90 83 47c127,71 274,132 416,190 261,108 508,210 607,369 190,304 37,669 1,754l-10 25c-17,20 -34,23 -54,6 -22,-17 -15,-32 -4,-59l0 0c33,-78 175,-416 5,-687 -87,-139 -323,-236 -573,-340 -118,-48 -239,-98 -351,-155 21,127 -15,228 -53,338 -16,47 -33,95 -46,147l0 1c-16,66 -58,239 128,428 60,7 117,19 170,36 113,36 210,93 286,169 86,86 144,197 164,328l2 3c50,-20 113,-31 178,-42 97,-17 198,-34 248,-79 100,-90 142,-168 153,-241zm-8 -122c-4,36 -4,49 -2,50 2,0 6,-1 11,-4 -2,-15 -5,-31 -9,-46zm76 -4l2 -2c39,-32 80,-65 118,-76l35 -10 10 35c29,100 -11,202 -39,269 36,-14 77,-27 97,-14 23,14 29,34 11,63 -19,31 -41,34 -35,37 10,7 101,-47 151,-76 39,-22 65,-38 86,-7l11 18 -9 18c-18,35 -36,59 -34,61 4,4 38,-10 125,-53 34,-38 65,-64 100,-86 -21,0 -41,1 -59,1 -48,2 -85,3 -99,-10l0 0c-18,-18 -18,-35 0,-53 36,-38 66,-102 95,-169 -60,32 -131,62 -165,41 -23,-14 -31,-38 -19,-78 -6,3 -12,7 -18,9 -8,4 -15,6 -23,10 -34,13 -55,5 -65,-23l0 0c-9,-21 3,-48 18,-85 20,-46 50,-116 48,-184 -17,11 -36,26 -54,41 -48,39 -94,77 -136,71 -39,-5 -63,-40 -59,-129 -22,23 -47,56 -64,93 -19,42 -42,53 -69,41 -33,-16 -37,-92 -41,-180 -1,-27 -2,-55 -4,-82 -60,136 -14,248 32,358 20,50 41,100 53,151zm-210 1033c17,25 33,49 48,74 111,147 245,319 326,400 209,209 353,179 521,143 126,-27 265,-56 451,-5 -73,-852 -324,-948 -645,-1002 -47,-3 -128,-18 -198,-33 -35,-6 -69,-13 -105,-22 -41,37 -82,91 -125,183 -46,98 -116,183 -185,228 -29,19 -59,31 -88,34zm-494 -404l-1 0c-29,6 -46,-21 -42,-45 5,-21 15,-38 29,-52 -12,-131 -64,-240 -147,-324 -67,-67 -154,-118 -256,-150 -102,-33 -220,-46 -347,-39 -312,19 -678,168 -1017,478 387,-2 608,206 801,388 141,133 267,252 430,250 140,-2 291,-25 414,-106 113,-75 204,-198 245,-401l-7 -12c-11,0 -22,1 -33,3 -24,2 -47,6 -69,10zm165 83c-52,184 -147,303 -261,378 -137,90 -301,117 -453,118 -5,0 -9,0 -14,0 -13,27 -23,57 -30,88 -6,32 -10,65 -10,101 0,124 82,283 207,457 122,172 285,357 451,538 79,-39 150,-82 213,-128 177,-129 291,-284 338,-455 46,-171 26,-358 -65,-551 -17,-37 -37,-74 -60,-111 -43,-57 -82,-110 -113,-153 -30,-42 -51,-72 -62,-88l-19 -28c-49,-63 -90,-118 -122,-166zm3567 -1490c-47,-39 -100,-81 -134,-94 -34,-14 -50,-16 -62,2 -21,31 -17,51 -17,92l-3 2118c0,259 -66,453 -197,583 -105,104 -449,133 -747,96 -116,-14 -225,-49 -324,-148 -98,-98 -146,-195 -144,-290 0,-49 15,-92 46,-128 31,-36 66,-54 105,-54 26,0 52,10 77,28 39,29 58,60 58,93 0,32 -17,66 -51,101 -33,35 -50,51 -50,47 37,76 65,128 86,154 51,62 117,97 197,105 101,10 475,21 600,-114 95,-101 98,-276 98,-473l-2 -2296c0,-49 -8,-86 -16,-114 -32,-99 -90,-140 -133,-176 -28,-24 -71,-61 -87,-73l-1 -41 705 535 -4 47zm3275 2605c-111,103 -255,154 -432,154 -53,0 -109,-5 -166,-15 -95,-17 -189,-47 -281,-93 -78,-39 -127,-58 -148,-58 -31,0 -63,17 -97,50 -34,34 -59,68 -76,101l-21 -679c0,109 92,237 277,383 185,146 342,219 469,219 142,0 262,-38 361,-115 111,-86 138,-353 75,-482 -54,-110 -354,-472 -499,-652 -221,-272 -374,-410 -424,-472 -156,-192 -260,-446 -250,-684 7,-152 68,-379 192,-462 111,-75 251,-111 420,-111 28,0 58,0 89,3 84,7 172,38 259,92 77,48 124,72 142,68 27,-6 54,-22 83,-46 23,-19 36,-32 40,-40 31,350 184,613 -141,277 -145,-149 -274,-234 -383,-259 -45,-10 -89,-15 -133,-15 -129,0 -236,39 -320,117 -85,78 -96,232 -96,332 0,136 196,447 366,598 337,300 563,616 573,629 248,296 481,827 121,1160zm1581 38c-111,103 -255,154 -432,154 -53,0 -109,-5 -166,-15 -95,-17 -189,-47 -281,-93 -78,-38 -128,-58 -148,-58 -31,0 -63,17 -97,51 -34,34 -59,67 -76,100l-21 -679c0,109 92,237 277,383 185,146 342,219 469,219 142,0 262,-38 361,-114 111,-87 138,-353 75,-483 -54,-110 -354,-472 -500,-652 -221,-271 -373,-410 -423,-472 -156,-191 -260,-446 -250,-684 7,-152 68,-378 192,-462 111,-75 251,-111 420,-111 28,0 58,0 89,3 84,8 171,38 259,93 77,48 123,72 142,67 27,-6 54,-22 83,-46 23,-19 36,-32 40,-40 31,351 184,613 -142,278 -145,-149 -273,-235 -382,-259 -45,-11 -89,-16 -133,-16 -129,0 -236,39 -320,117 -85,78 -96,232 -96,332 0,136 196,447 366,598 337,300 563,616 573,629 248,296 481,827 121,1160zm-3158 -1374l0 0 -31 617 -1511 0 0 -31c14,2 39,-2 74,-14 35,-11 62,-27 82,-49 19,-22 29,-57 29,-106l0 -1697c0,-49 -10,-84 -29,-106 -20,-22 -47,-38 -82,-49 -35,-12 -60,-16 -74,-14l0 -31 958 -1 312 228c-99,-70 -213,-119 -333,-158 -48,-15 -10,-7 -172,-7l-241 0c-27,0 -49,7 -66,21 -18,15 -26,38 -26,71l0 848 428 0c48,0 84,-10 108,-31 19,-14 35,-46 50,-95 14,-49 18,-84 12,-105l31 0 0 555 -31 0c4,-12 -1,-44 -14,-94 -13,-50 -29,-86 -48,-106 -18,-21 -54,-31 -108,-31l-428 0 0 786c0,37 8,62 24,74 17,13 39,19 68,19l494 0c168,0 280,-26 336,-79 55,-52 103,-135 142,-248 30,-84 46,-140 46,-167zm2253 -3270l1052 -1646 -833 1647 -219 -1zm-2549 -786c-199,0 -299,69 -299,207l0 1384 910 1075 -995 -742 -1331 -1594 0 1205 711 927 -911 -671 -1216 -1490 0 1403c0,127 100,191 299,191l0 59 -734 0 0 -59c200,0 299,-73 299,-219l0 -1533c-51,-63 -83,-100 -95,-111 -52,-41 -120,-61 -204,-61l0 -59 531 0 1184 1483 0 -1223c-51,-63 -83,-100 -95,-110 -51,-41 -119,-62 -203,-62l0 -29 -1 0 0 -59 533 3 0 30 1182 1480 0 -1233c0,-128 -99,-192 -299,-192l0 -58 734 0 0 58zm-4453 1161l0 0 -356 -849 -357 849 713 0zm6661 -1161l0 0 0 -58 -676 0 0 58c140,0 210,27 210,81 0,45 -12,87 -37,126l-443 707 -464 -694c-32,-49 -49,-100 -49,-152 0,-45 75,-68 225,-68l0 -58 -866 0 0 58c113,0 221,76 323,226l580 854 0 644c0,134 -104,201 -311,201l0 59 937 0 0 -59c-207,0 -311,-64 -311,-191l0 -688 475 -722c142,-216 277,-324 407,-324z"/>
 </g>
</svg>
