<?xml version="1.0" encoding="iso-8859-1"?>
<!-- Generator: Adobe Illustrator 19.0.0, SVG Export Plug-In . SVG Version: 6.00 Build 0)  -->
<svg version="1.1" id="Capa_1" xmlns="http://www.w3.org/2000/svg" xmlns:xlink="http://www.w3.org/1999/xlink" x="0px" y="0px"
	 viewBox="0 0 511.999 511.999" style="enable-background:new 0 0 511.999 511.999;" xml:space="preserve">
<g>
	<g>
		<path d="M258.23,360.093h-4.461c-4.143,0-7.5,3.358-7.5,7.5c0,4.142,3.357,7.5,7.5,7.5h4.461c4.143,0,7.5-3.358,7.5-7.5
			C265.731,363.451,262.373,360.093,258.23,360.093z"/>
	</g>
</g>
<g>
	<g>
		<g>
			<path d="M275.113,155.134c0.04,0.085,0.083,0.177,0.129,0.275C275.2,155.318,275.157,155.226,275.113,155.134z"/>
			<path d="M275.243,155.409c4.813,10.206,6.97,14.782,7.559,16.031C281.8,169.315,276.813,158.738,275.243,155.409z"/>
			<path d="M275.008,154.911c0.036,0.076,0.07,0.149,0.106,0.224C275.075,155.054,275.04,154.979,275.008,154.911z"/>
			<path d="M282.889,171.624c0.028,0.059,0.051,0.109,0.066,0.14C282.94,171.732,282.918,171.685,282.889,171.624z"/>
			<path d="M491.666,194.072c4.143,0,7.5-3.358,7.5-7.5V24.469C499.167,10.977,488.19,0,474.698,0H37.301
				C23.809,0,12.832,10.977,12.832,24.469c0,14.034,0,349.112,0,366.684c0,13.492,10.977,24.468,24.469,24.468h162.458v43.01h-24.51
				c-12.009,0-21.777,9.77-21.777,21.776v9.816c0,12.008,9.77,21.776,21.777,21.776h60.209c4.143,0,7.5-3.358,7.5-7.5
				s-3.357-7.5-7.5-7.5h-60.209c-3.736,0-6.776-3.04-6.776-6.775v-9.816c0-3.736,3.04-6.775,6.776-6.775
				c5.319,0,149.241,0,157.041,0c3.736,0,6.776,3.04,6.776,6.775v9.816c0,3.736-3.04,6.775-6.776,6.775h-61.83
				c-4.143,0-7.5,3.358-7.5,7.5s3.357,7.5,7.5,7.5h61.83c12.009,0,21.777-9.77,21.777-21.776v-9.816
				c0-12.008-9.77-21.776-21.777-21.776h-24.51v-43.01h166.92c13.492,0,24.469-10.977,24.469-24.468c0-6.97,0-161.417,0-169.579
				c0-4.142-3.357-7.5-7.5-7.5s-7.5,3.358-7.5,7.5v97.991h-19.874V54.582c0-9.679-7.875-17.553-17.553-17.553H65.26
				c-9.679,0-17.553,7.875-17.553,17.553v264.982H27.833V24.469c0-5.22,4.247-9.468,9.468-9.468h437.397
				c5.22,0,9.468,4.247,9.468,9.468v162.103C484.166,190.714,487.523,194.072,491.666,194.072z M292.778,458.631h-78.019v-43.01
				h78.019V458.631z M62.708,54.582c0-1.407,1.145-2.552,2.552-2.552h381.478c1.407,0,2.552,1.145,2.552,2.552v264.982h-45.747
				V85.374c0-6.503-5.291-11.795-11.795-11.795h-64.534c-6.503,0-11.795,5.291-11.795,11.795v234.19h-18.4V203.277
				c0-1.104-0.251-2.206-0.716-3.199c-19.022-40.342-22.595-47.921-21.297-45.168c-2.887-6.123-6.7-14.208-11.667-24.744
				c-4.141-8.78-16.626-8.77-20.763,0c-3.528,7.482-30.021,63.669-32.964,69.911c-0.477,1.01-0.716,2.167-0.716,3.199v116.287
				h-20.004l1.554-41.162c0.188-4.983-1.613-9.706-5.072-13.297c-1.41-1.465-3.026-2.645-4.774-3.548v-21.718
				c8.131-0.554,14.584-7.329,14.584-15.599v-6.884c0-8.271-6.452-15.045-14.584-15.599v-2.668l18.4-18.66
				c4.665-4.73,5.336-12.149,1.595-17.64l-39.428-57.859c-3.861-5.671-12.285-5.671-16.147-0.001l-39.428,57.861
				c-3.741,5.491-3.07,12.91,1.595,17.64l18.399,18.659v2.669c-8.132,0.554-14.583,7.329-14.583,15.599v6.884
				c0,8.271,6.451,15.045,14.583,15.599v21.718c-1.748,0.903-3.364,2.083-4.773,3.547c-3.459,3.592-5.26,8.313-5.072,13.297
				l1.554,41.162H62.708V54.582z M376.413,137.777h12.13v34.196h-12.13c-4.143,0-7.5,3.358-7.5,7.5c0,4.142,3.357,7.5,7.5,7.5h12.13
				v34.196h-12.13c-4.143,0-7.5,3.358-7.5,7.5c0,4.142,3.357,7.5,7.5,7.5h12.13v34.196h-12.13c-4.143,0-7.5,3.358-7.5,7.5
				c0,4.142,3.357,7.5,7.5,7.5h12.13v34.196h-58.122V88.58h58.122v34.196h-12.13c-4.143,0-7.5,3.358-7.5,7.5
				C368.913,134.419,372.27,137.777,376.413,137.777z M228.226,195.777l6.439-13.656h36.585l6.439,13.656
				C272.448,195.777,233.469,195.777,228.226,195.777z M245.458,210.778v108.787h-21.56V210.778H245.458z M241.738,167.119
				l11.22-23.794l11.22,23.794H241.738z M260.458,210.778h21.56v108.787h-21.56V210.778z M172.278,274.536
				c1.177,0,1.94,0.61,2.291,0.975c0.351,0.364,0.932,1.149,0.887,2.326l-1.575,41.729h-41.575l-1.576-41.73
				c-0.045-1.176,0.536-1.961,0.887-2.325c0.351-0.364,1.114-0.975,2.291-0.975H172.278z M140.586,259.535v-19.642h25.013v19.642
				H140.586z M126.655,224.892c-0.342,0-0.652-0.311-0.652-0.652v-6.884c0-0.341,0.311-0.652,0.652-0.652
				c11.111,0,41.583,0,52.873,0c0.342,0,0.653,0.311,0.653,0.652v6.884c0,0.341-0.312,0.652-0.653,0.652
				C168.239,224.892,137.766,224.892,126.655,224.892z M169.535,188.942c-4.394,4.453-3.937,9.233-3.937,12.759h-25.013
				c0-3.392,0.504-8.257-3.936-12.758l-18.172-18.429l27.114-39.79v31.521h0.002c-3.736,0.428-6.638,3.597-6.638,7.447
				c0,4.142,3.357,7.5,7.5,7.5h12.884c4.143,0,7.5-3.358,7.5-7.5c0-3.714-2.701-6.789-6.245-7.387v-31.581l27.114,39.79
				L169.535,188.942z M484.166,334.565v56.586c0,5.22-4.247,9.468-9.468,9.468c-5.174,0-426.944,0-437.397,0
				c-5.22,0-9.468-4.247-9.468-9.468v-56.586H484.166z"/>
			<path d="M282.802,171.44c0.034,0.072,0.062,0.132,0.087,0.184C282.865,171.574,282.836,171.513,282.802,171.44z"/>
			<path d="M282.955,171.764C282.985,171.828,282.987,171.832,282.955,171.764L282.955,171.764z"/>
		</g>
	</g>
</g>
<g>
</g>
<g>
</g>
<g>
</g>
<g>
</g>
<g>
</g>
<g>
</g>
<g>
</g>
<g>
</g>
<g>
</g>
<g>
</g>
<g>
</g>
<g>
</g>
<g>
</g>
<g>
</g>
<g>
</g>
</svg>
