<svg height="512pt" viewBox="-66 0 512 512" width="512pt" xmlns="http://www.w3.org/2000/svg"><path d="m31 47c0 12.40625 10.09375 22.5 22.5 22.5s22.5-10.09375 22.5-22.5-10.09375-22.5-22.5-22.5-22.5 10.09375-22.5 22.5zm30 0c0 4.136719-3.363281 7.5-7.5 7.5s-7.5-3.363281-7.5-7.5 3.363281-7.5 7.5-7.5 7.5 3.363281 7.5 7.5zm0 0"/><path d="m91 47c0 12.40625 10.09375 22.5 22.5 22.5s22.5-10.09375 22.5-22.5-10.09375-22.5-22.5-22.5-22.5 10.09375-22.5 22.5zm30 0c0 4.136719-3.363281 7.5-7.5 7.5s-7.5-3.363281-7.5-7.5 3.363281-7.5 7.5-7.5 7.5 3.363281 7.5 7.5zm0 0"/><path d="m151 47c0 12.40625 10.09375 22.5 22.5 22.5s22.5-10.09375 22.5-22.5-10.09375-22.5-22.5-22.5-22.5 10.09375-22.5 22.5zm30 0c0 4.136719-3.363281 7.5-7.5 7.5s-7.5-3.363281-7.5-7.5 3.363281-7.5 7.5-7.5 7.5 3.363281 7.5 7.5zm0 0"/><path d="m371.5 0h-364c-4.140625 0-7.5 3.355469-7.5 7.5v440.167969c0 4.140625 3.359375 7.5 7.5 7.5s7.5-3.359375 7.5-7.5v-352.667969h302.25c4.140625 0 7.5-3.355469 7.5-7.5s-3.359375-7.5-7.5-7.5h-302.25v-65h349v65h-14.5c-4.140625 0-7.5 3.355469-7.5 7.5s3.359375 7.5 7.5 7.5h14.5v402h-349v-16.5c0-4.144531-3.359375-7.5-7.5-7.5s-7.5 3.355469-7.5 7.5v24c0 4.144531 3.359375 7.5 7.5 7.5h364c4.140625 0 7.5-3.355469 7.5-7.5v-497c0-4.144531-3.359375-7.5-7.5-7.5zm0 0"/><path d="m189.5 326c49.351562 0 89.5-40.148438 89.5-89.5s-40.148438-89.5-89.5-89.5-89.5 40.148438-89.5 89.5 40.148438 89.5 89.5 89.5zm0-164c41.078125 0 74.5 33.421875 74.5 74.5s-33.421875 74.5-74.5 74.5-74.5-33.421875-74.5-74.5 33.421875-74.5 74.5-74.5zm0 0"/><path d="m65.609375 215.003906c-4.035156 6.128906-8.609375 13.074219-8.609375 21.496094s4.574219 15.367188 8.609375 21.496094c2.429687 3.691406 4.722656 7.175781 5.535156 10.21875.875 3.277344.636719 7.585937.382813 12.148437-.402344 7.207031-.855469 15.375 3.210937 22.402344 4.125 7.128906 11.484375 10.828125 17.980469 14.09375 4.027344 2.023437 7.835938 3.9375 10.160156 6.261719 2.324219 2.320312 4.234375 6.128906 6.261719 10.160156 3.261719 6.492188 6.960937 13.855469 14.089844 17.980469 1.226562.707031 2.484375 1.269531 3.769531 1.730469v127.507812c0 2.707031 1.460938 5.207031 3.820312 6.535156 2.359376 1.328125 5.253907 1.28125 7.566407-.121094l51.113281-30.984374 51.109375 30.984374c1.195313.722657 2.542969 1.085938 3.890625 1.085938 1.269531 0 2.535156-.320312 3.679688-.964844 2.359374-1.328125 3.820312-3.828125 3.820312-6.535156v-88.375c0-4.144531-3.359375-7.5-7.5-7.5s-7.5 3.355469-7.5 7.5v75.058594l-15-9.09375v-103.40625c3.167969-.65625 7.152344-.445313 11.363281-.210938 1.191407.066406 2.40625.132813 3.636719.179688v5.097656c0 4.144531 3.359375 7.5 7.5 7.5s7.5-3.355469 7.5-7.5v-6.757812c1.28125-.457032 2.542969-1.023438 3.769531-1.730469 7.128907-4.125 10.828125-11.484375 14.089844-17.980469 2.023437-4.027344 3.9375-7.835938 6.261719-10.160156 2.320312-2.320313 6.128906-4.234375 10.160156-6.261719 6.496094-3.261719 13.855469-6.960937 17.980469-14.089844 4.066406-7.03125 3.613281-15.199219 3.210937-22.40625-.253906-4.5625-.492187-8.871093.382813-12.148437.8125-3.042969 3.105469-6.527344 5.535156-10.214844 4.035156-6.132812 8.609375-13.078125 8.609375-21.5s-4.574219-15.367188-8.609375-21.496094c-2.429687-3.691406-4.722656-7.175781-5.535156-10.214844-.875-3.277343-.636719-7.589843-.382813-12.152343.402344-7.203125.855469-15.371094-3.210937-22.402344-4.125-7.128906-11.484375-10.828125-17.980469-14.089844-4.027344-2.027343-7.835938-3.941406-10.160156-6.265625-2.324219-2.320312-4.234375-6.128906-6.261719-10.160156-3.261719-6.492188-6.960937-13.855469-14.089844-17.980469-7.03125-4.066406-15.199219-3.609375-22.40625-3.210937-4.5625.253906-8.871093.496094-12.148437-.382813-3.042969-.8125-6.527344-3.105469-10.21875-5.535156-6.128906-4.035156-13.074219-8.609375-21.496094-8.609375s-15.367188 4.574219-21.496094 8.609375c-3.691406 2.429687-7.175781 4.722656-10.21875 5.535156-3.277344.875-7.589844.636719-12.148437.382813-7.207031-.402344-15.375-.855469-22.40625 3.210937-7.128907 4.125-10.828125 11.484375-14.089844 17.980469-2.023437 4.027344-3.9375 7.835938-6.261719 10.160156-2.320312 2.320313-6.128906 4.234375-10.160156 6.261719-6.496094 3.261719-13.855469 6.960937-17.980469 14.089844-4.066406 7.03125-3.613281 15.199219-3.210937 22.40625.253906 4.5625.492187 8.871093-.382813 12.148437-.8125 3.042969-3.105469 6.527344-5.535156 10.21875zm76.390625 139.648438c1.230469-.046875 2.445312-.113282 3.636719-.179688 4.210937-.234375 8.195312-.445312 11.363281.210938v103.40625l-15 9.09375zm43.613281 86.09375-13.613281 8.25v-86.027344c5.132812 3.183594 10.855469 6.03125 17.5 6.03125s12.367188-2.847656 17.5-6.03125v86.027344l-13.613281-8.25c-2.390625-1.445313-5.382813-1.445313-7.773438 0zm-107.476562-217.496094c2.980469-4.523438 6.058593-9.199219 7.5-14.589844 1.496093-5.59375 1.175781-11.320312.867187-16.855468-.3125-5.609376-.605468-10.90625 1.21875-14.0625 1.882813-3.25 6.667969-5.652344 11.730469-8.199219 4.917969-2.46875 10-5.023438 14.03125-9.058594 4.035156-4.03125 6.589844-9.117187 9.058594-14.03125 2.546875-5.066406 4.949219-9.851563 8.199219-11.730469 3.15625-1.824218 8.453124-1.527344 14.058593-1.21875 5.539063.308594 11.265625.628906 16.859375-.867187 5.386719-1.441407 10.066406-4.519531 14.589844-7.5 4.796875-3.15625 9.324219-6.136719 13.25-6.136719s8.453125 2.980469 13.25 6.136719c4.523438 2.980469 9.199219 6.058593 14.589844 7.5 5.59375 1.496093 11.320312 1.175781 16.855468.867187 5.609376-.308594 10.90625-.605468 14.058594 1.21875 3.25 1.878906 5.65625 6.664063 8.199219 11.730469 2.472656 4.914063 5.027344 10 9.058594 14.03125 4.035156 4.035156 9.121093 6.589844 14.035156 9.0625 5.066406 2.542969 9.851563 4.945313 11.730469 8.195313 1.824218 3.15625 1.53125 8.453124 1.21875 14.058593-.308594 5.539063-.628906 11.265625.867187 16.859375 1.441407 5.390625 4.519531 10.066406 7.5 14.589844 3.15625 4.796875 6.136719 9.324219 6.136719 13.25s-2.980469 8.453125-6.136719 13.25c-2.980469 4.523438-6.058593 9.199219-7.5 14.589844-1.496093 5.59375-1.175781 11.320312-.867187 16.855468.3125 5.609376.605468 10.90625-1.21875 14.0625-1.882813 3.25-6.667969 5.652344-11.730469 8.199219-4.917969 2.46875-10 5.023438-14.03125 9.058594-4.035156 4.03125-6.589844 9.117187-9.058594 14.03125-2.546875 5.066406-4.949219 9.851563-8.199219 11.730469-3.15625 1.828125-8.453124 1.53125-14.058593 1.21875-5.539063-.308594-11.265625-.628906-16.859375.867187-2.222656.59375-4.316406 1.476563-6.332032 2.503907-.039062.019531-.078124.039062-.117187.058593-2.835937 1.457031-5.519531 3.210938-8.140625 4.9375-4.796875 3.15625-9.324219 6.136719-13.25 6.136719s-8.453125-2.980469-13.25-6.136719c-2.621094-1.726562-5.304688-3.480469-8.136719-4.9375-.039062-.019531-.078125-.039062-.117187-.058593-2.019532-1.03125-4.113282-1.910157-6.335938-2.503907-3.261718-.871093-6.566406-1.125-9.855468-1.125-2.351563 0-4.691407.128907-7 .257813-5.609376.3125-10.90625.609375-14.058594-1.21875-3.25-1.878906-5.65625-6.664063-8.199219-11.730469-2.472656-4.914063-5.027344-10-9.058594-14.03125-4.035156-4.035156-9.121093-6.589844-14.035156-9.0625-5.066406-2.542969-9.851563-4.945313-11.730469-8.195313-1.824218-3.15625-1.53125-8.453124-1.21875-14.058593.308594-5.539063.628906-11.265625-.867187-16.859375-1.441407-5.390625-4.519531-10.066406-7.5-14.589844-3.15625-4.796875-6.136719-9.324219-6.136719-13.25s2.980469-8.453125 6.136719-13.25zm0 0"/><path d="m141.730469 241.289062 35.632812 28.488282c1.378907 1.101562 3.035157 1.640625 4.679688 1.640625 2.070312 0 4.128906-.851563 5.605469-2.511719l48.820312-54.839844c2.753906-3.09375 2.480469-7.832031-.613281-10.585937-3.09375-2.753907-7.832031-2.480469-10.589844.613281l-44.089844 49.523438-30.082031-24.046876c-3.234375-2.585937-7.953125-2.058593-10.539062 1.175782-2.585938 3.234375-2.0625 7.957031 1.175781 10.542968zm0 0"/></svg>