<?xml version="1.0" encoding="iso-8859-1"?>
<!-- Generator: Adobe Illustrator 19.0.0, SVG Export Plug-In . SVG Version: 6.00 Build 0)  -->
<svg version="1.1" id="Capa_1" xmlns="http://www.w3.org/2000/svg" xmlns:xlink="http://www.w3.org/1999/xlink" x="0px" y="0px"
	 viewBox="0 0 512 512" style="enable-background:new 0 0 512 512;" xml:space="preserve">
<g>
	<g>
		<path d="M364.338,208.495c-4.014-1.008-8.091,1.432-9.1,5.45c-5.729,22.842-22.205,41.767-44.074,50.623
			c-4.114,1.667-6.772,5.625-6.772,10.084v14.88H290.87v-58.206h7.296c9.985,0,18.108-8.123,18.108-18.108v-2.669
			c0-9.985-8.123-18.108-18.108-18.108h-29.593c-9.985,0-18.108,8.124-18.108,18.108v2.669c0,9.985,8.124,18.108,18.108,18.108
			h7.295v58.206h-13.522v-15.326c0-4.209-2.538-7.944-6.464-9.515c-27.828-11.125-46.122-37.66-46.606-67.604
			c-0.656-40.568,31.776-74.349,72.296-75.305c36.531-0.852,67.899,24.524,74.608,60.364c0.762,4.071,4.68,6.758,8.753,5.992
			c4.071-0.762,6.754-4.68,5.992-8.753c-3.84-20.516-14.885-39.142-31.1-52.448c-16.452-13.5-37.273-20.646-58.606-20.153
			c-48.728,1.15-87.73,41.768-86.942,90.544c0.565,34.932,21.281,66.006,53.068,80.043v13.795
			c-6.247,2.851-10.608,9.143-10.608,16.446v2.663c0,7.303,4.36,13.595,10.608,16.446v19.227c0,3.983,2.323,7.425,5.68,9.07
			l7.394,14.789c9.45,18.899,36.447,18.896,45.895,0l7.394-14.789c3.358-1.643,5.682-5.085,5.682-9.069v-19.227
			C325.64,323.872,330,317.58,330,310.277v-2.663c0-7.303-4.36-13.595-10.608-16.446v-13.797
			c24.995-11.064,43.733-33.218,50.395-59.777C370.796,213.576,368.356,209.502,364.338,208.495z M268.573,216.324
			c-1.684,0.001-3.107-1.422-3.107-3.107v-2.669c0-1.685,1.423-3.107,3.107-3.107h29.593c1.685,0,3.107,1.423,3.107,3.107v2.669
			c0,1.685-1.423,3.107-3.107,3.107H268.573z M292.9,363.1c-3.932,7.864-15.122,7.878-19.061,0l-3.523-7.047h26.108L292.9,363.1z
			 M304.392,341.052h-42.044v-12.693h0h42.044V341.052z M315,310.277c0,1.549-1.218,2.86-2.726,3.044c0,0-57.809,0-57.81,0
			c-1.508-0.186-2.724-1.496-2.724-3.044v-2.663c0-1.67,1.412-3.082,3.082-3.082h0.025h57.045h0.025c1.67,0,3.082,1.411,3.082,3.082
			V310.277z"/>
	</g>
</g>
<g>
	<g>
		<path d="M283.37,59.868c-4.142,0-7.5,3.358-7.5,7.5v20.869c0,4.142,3.358,7.5,7.5,7.5c4.142,0,7.5-3.358,7.5-7.5V67.368
			C290.87,63.226,287.512,59.868,283.37,59.868z"/>
	</g>
</g>
<g>
	<g>
		<path d="M243.705,94.502l-10.435-18.073c-2.071-3.587-6.659-4.816-10.246-2.745c-3.587,2.071-4.816,6.658-2.745,10.246
			l10.435,18.073c2.072,3.588,6.659,4.817,10.246,2.745C244.547,102.676,245.776,98.089,243.705,94.502z"/>
	</g>
</g>
<g>
	<g>
		<path d="M203.267,119.178l-18.073-10.435c-3.587-2.072-8.174-0.842-10.246,2.745c-2.071,3.587-0.842,8.174,2.745,10.246
			l18.073,10.435c3.587,2.072,8.174,0.842,10.246-2.745S206.854,121.249,203.267,119.178z"/>
	</g>
</g>
<g>
	<g>
		<path d="M343.714,73.683c-3.588-2.072-8.174-0.842-10.246,2.745l-10.435,18.073c-2.071,3.587-0.842,8.174,2.745,10.246
			c3.587,2.072,8.174,0.843,10.246-2.745l10.435-18.073C348.531,80.342,347.302,75.755,343.714,73.683z"/>
	</g>
</g>
<g>
	<g>
		<path d="M391.791,111.489c-2.071-3.587-6.658-4.817-10.246-2.745l-18.073,10.435c-3.587,2.071-4.816,6.658-2.745,10.246
			c2.071,3.588,6.659,4.817,10.246,2.745l18.073-10.435C392.633,119.663,393.862,115.076,391.791,111.489z"/>
	</g>
</g>
<g>
	<g>
		<path d="M284.965,0c-97.479,0-176.784,79.304-176.784,176.782v25.162c0,25.333-9.866,49.149-27.778,67.062l-23.306,23.306
			c-6.752,6.751-8.677,16.427-5.022,25.25c3.654,8.823,11.857,14.304,21.406,14.304h33.52c0.651,0,1.181,0.53,1.181,1.181v28.756
			c0,47.217,38.414,85.631,85.631,85.631c12.618,0,22.882,10.265,22.882,22.882v24.96c0,9.222,7.502,16.725,16.725,16.725h49.542
			c4.142,0,7.5-3.358,7.5-7.5s-3.358-7.5-7.5-7.5h-49.542c-0.95,0-1.724-0.773-1.724-1.724v-24.96
			c0-20.889-16.995-37.883-37.883-37.883c-38.945,0-70.63-31.685-70.63-70.63v-28.756c0-8.922-7.259-16.182-16.182-16.182h-33.52
			c-5.064,0-7.057-3.86-7.546-5.042c-0.49-1.183-1.811-5.321,1.771-8.903l23.306-23.306c20.746-20.746,32.172-48.33,32.172-77.669
			v-25.161c-0.002-89.207,72.574-161.782,161.781-161.782c89.208,0,161.783,72.575,161.783,161.783v73.79
			c0,39.437-14.359,77.427-40.432,106.971c-17.313,19.618-26.848,45.75-26.848,73.581v64.013c0,1.025-0.834,1.859-1.859,1.859
			h-59.645c-4.142,0-7.5,3.358-7.5,7.5c0,4.142,3.358,7.5,7.5,7.5h59.645c9.297,0,16.86-7.563,16.86-16.86v-64.013
			c0-24.174,8.201-46.781,23.094-63.656c28.494-32.288,44.186-73.802,44.186-116.897v-73.79C461.748,79.305,382.445,0,284.965,0z"/>
	</g>
</g>
<g>
</g>
<g>
</g>
<g>
</g>
<g>
</g>
<g>
</g>
<g>
</g>
<g>
</g>
<g>
</g>
<g>
</g>
<g>
</g>
<g>
</g>
<g>
</g>
<g>
</g>
<g>
</g>
<g>
</g>
</svg>
