<?xml version="1.0" encoding="iso-8859-1"?>
<!-- Generator: Adobe Illustrator 19.0.0, SVG Export Plug-In . SVG Version: 6.00 Build 0)  -->
<svg version="1.1" id="Capa_1" xmlns="http://www.w3.org/2000/svg" xmlns:xlink="http://www.w3.org/1999/xlink" x="0px" y="0px"
	 viewBox="0 0 512 512" style="enable-background:new 0 0 512 512;" xml:space="preserve">
<g>
	<g>
		<path d="M499.347,29.207C499.347,13.103,486.245,0,470.141,0h-20.459c-16.105,0-29.207,13.103-29.207,29.207
			c0,22.236,0,373.163,0,395.952c0,0.858,0.181,1.877,0.516,2.732c5.143,13.149,20.683,52.88,25.777,65.901
			c2.373,6.064,7.516,9.612,13.144,9.613c0,0,0,0,0.001,0c6.032,0,10.926-3.945,13.144-9.613l25.777-65.901
			c0.334-0.847,0.516-1.871,0.516-2.732C499.348,412.371,499.347,59.089,499.347,29.207z M435.475,29.207
			c0-7.833,6.373-14.206,14.207-14.206h20.459c7.833,0,14.205,6.373,14.205,14.206v16.202h-48.871V29.207z M435.475,99.525h16.936
			v318.133h-16.936V99.525z M459.911,486.214l-9.237-23.615h18.474L459.911,486.214z M475.017,447.598h-30.21l-5.843-14.939
			c22.494,0,19.412,0,41.897,0L475.017,447.598z M484.347,417.659h-16.935v-0.001V99.525h16.935V417.659z M484.347,84.523
			c-7.216,0-41.655,0-48.871,0V60.41h48.871V84.523z"/>
	</g>
</g>
<g>
	<g>
		<path d="M320.853,212.87c-0.001,0-0.001,0-0.001-0.001l-59.67-80.243c-5.572-7.492-15.818-7.481-21.383,0.001l-18.822,25.313
			l-31.109-41.837c-6.05-8.133-17.082-8.125-23.121,0l-71.312,95.9c-6.601,8.88-0.259,21.506,10.809,21.506
			c9.844,0,196.87,0,204.236,0C321.097,233.509,327.189,221.395,320.853,212.87z M109.291,218.508l69.016-92.813l33.322,44.814
			c-5.931,7.976-31.51,42.376-35.691,47.999H109.291z M194.632,218.507l55.86-75.12l55.858,75.12H194.632z"/>
	</g>
</g>
<g>
	<g>
		<path d="M223.03,66.041c-15.095,0-27.376,12.281-27.376,27.376c0,15.095,12.281,27.376,27.376,27.376s27.376-12.281,27.376-27.376
			C250.405,78.322,238.124,66.041,223.03,66.041z M223.03,105.791c-6.823,0-12.375-5.551-12.375-12.375
			c0-6.823,5.551-12.375,12.375-12.375s12.375,5.551,12.375,12.375C235.404,100.24,229.853,105.791,223.03,105.791z"/>
	</g>
</g>
<g>
	<g>
		<path d="M274.286,304.788h-131.09c-4.143,0-7.5,3.357-7.5,7.5s3.357,7.5,7.5,7.5h131.09c4.143,0,7.5-3.357,7.5-7.5
			S278.428,304.788,274.286,304.788z"/>
	</g>
</g>
<g>
	<g>
		<path d="M274.286,344.2h-131.09c-4.143,0-7.5,3.357-7.5,7.5c0,4.143,3.357,7.5,7.5,7.5h131.09c4.143,0,7.5-3.357,7.5-7.5
			C281.786,347.557,278.428,344.2,274.286,344.2z"/>
	</g>
</g>
<g>
	<g>
		<path d="M274.286,383.61h-131.09c-4.143,0-7.5,3.357-7.5,7.5c0,4.143,3.357,7.5,7.5,7.5h131.09c4.143,0,7.5-3.357,7.5-7.5
			C281.786,386.967,278.428,383.61,274.286,383.61z"/>
	</g>
</g>
<g>
	<g>
		<path d="M353.147,0H213.222c-4.143,0-7.5,3.358-7.5,7.5c0,4.142,3.357,7.5,7.5,7.5h139.925c1.16,0,2.104,0.944,2.104,2.105v207.92
			c0,4.143,3.357,7.5,7.5,7.5s7.5-3.357,7.5-7.5V17.106C370.253,7.673,362.58,0,353.147,0z"/>
	</g>
</g>
<g>
	<g>
		<path d="M362.753,252.527c-4.143,0-7.5,3.357-7.5,7.5v183.079H69.244V15.001H178.22c4.143,0,7.5-3.358,7.5-7.5
			c0-4.142-3.357-7.5-7.5-7.5C175.17,0,32.955,0,29.757,0c-9.433,0-17.106,7.673-17.106,17.106v460.448
			c0,0.05,0.007,0.099,0.008,0.148C12.729,496.61,28.03,512,47.098,512h306.352c9.267,0,16.805-7.538,16.805-16.805V260.028
			C370.253,255.885,366.895,252.527,362.753,252.527z M27.651,17.106L27.651,17.106c0.001-1.161,0.945-2.105,2.106-2.105h24.486
			v428.107c-7.791,0-16.641-0.804-26.593,6.026V17.106z M353.448,497H47.097c-10.831,0-19.618-8.825-19.428-19.796
			c0.191-10.862,9.571-19.095,20.073-19.095c3.175,0,285.439,0,307.51,0v37.087h0.001C355.253,496.19,354.443,497,353.448,497z"/>
	</g>
</g>
<g>
</g>
<g>
</g>
<g>
</g>
<g>
</g>
<g>
</g>
<g>
</g>
<g>
</g>
<g>
</g>
<g>
</g>
<g>
</g>
<g>
</g>
<g>
</g>
<g>
</g>
<g>
</g>
<g>
</g>
</svg>
